{"glyphs":{":":{"x_min":0,"x_max":239,"ha":239,"o":"m 61 307 l 61 449 l 180 449 l 180 307 z m 61 0 l 61 142 l 180 142 l 180 0 z"},"$":{"x_min":0,"x_max":483,"ha":483,"o":"m 448 157 q 448 84 399 42 q 350 1 274 -6 l 274 -65 l 218 -65 l 218 -7 q 162 -4 116 11 q 70 26 41 45 l 60 170 l 149 163 l 144 98 q 177 81 218 78 l 218 232 q 156 244 101 269 q 46 294 46 375 q 46 454 100 488 q 154 523 218 528 l 218 593 l 274 593 l 274 528 q 321 524 358 511 q 396 498 422 480 l 432 357 l 343 350 l 331 425 q 306 438 274 443 l 274 314 q 305 308 346 294 q 387 280 418 248 q 448 217 448 157 z m 161 387 q 161 362 177 348 q 193 334 218 327 l 218 442 q 161 432 161 387 z m 334 145 q 334 175 317 192 q 300 208 274 218 l 274 79 q 334 91 334 145 z"},"?":{"x_min":0,"x_max":468,"ha":468,"o":"m 125 458 l 39 466 l 55 607 q 102 633 152 646 q 202 659 244 659 q 328 659 384 622 q 441 584 441 518 q 441 467 411 436 q 381 404 342 383 q 304 362 274 343 q 244 324 244 297 q 244 264 289 264 l 289 196 q 128 180 128 285 q 128 332 157 358 q 186 385 224 403 q 262 421 291 442 q 320 464 320 500 q 320 562 231 562 q 208 562 182 556 q 157 550 139 538 z m 157 0 l 157 127 l 285 127 l 285 0 z"},"<":{"x_min":0,"x_max":401,"ha":401,"o":"m 346 14 l 27 262 l 27 296 l 345 549 l 345 447 l 137 281 l 346 116 z"},"'":{"x_min":0,"x_max":202,"ha":202,"o":"m 146 377 l 55 377 l 47 650 l 154 650 z"},"=":{"x_min":0,"x_max":558,"ha":558,"o":"m 50 354 l 50 428 l 507 428 l 507 354 z m 50 132 l 50 207 l 507 207 l 507 132 z"},"a":{"x_min":0,"x_max":497,"ha":497,"o":"m 73 416 q 123 440 162 449 q 201 458 252 458 q 327 458 376 420 q 424 382 424 306 l 424 104 q 424 64 457 64 q 466 64 480 68 l 481 9 q 448 -10 409 -10 q 324 -10 317 79 l 317 81 q 297 46 260 18 q 224 -10 170 -10 q 123 -10 78 18 q 32 47 32 118 q 32 201 98 228 q 164 254 241 254 q 260 254 280 253 q 300 252 317 250 l 317 275 q 317 315 303 347 q 289 379 233 379 q 212 379 194 376 q 175 373 158 364 l 140 295 l 54 304 z m 317 178 l 317 194 q 300 196 282 198 q 264 200 245 200 q 205 200 174 186 q 142 172 142 130 q 142 69 207 69 q 245 69 279 96 q 313 124 317 178 z"},"L":{"x_min":0,"x_max":553,"ha":553,"o":"m 521 0 l 40 0 l 40 95 l 115 95 l 115 555 l 40 555 l 40 650 l 323 650 l 323 555 l 226 555 l 226 95 l 426 95 l 446 230 l 541 222 z"},"3":{"x_min":0,"x_max":516,"ha":516,"o":"m 69 487 q 116 509 167 520 q 218 531 258 531 q 344 531 400 491 q 457 451 457 371 q 457 322 430 282 q 404 243 340 219 l 340 215 q 417 200 450 156 q 482 112 482 53 q 482 -42 414 -92 q 346 -141 246 -141 q 144 -141 92 -96 q 41 -50 36 24 l 125 52 q 130 15 157 -16 q 184 -46 245 -46 q 311 -46 336 -12 q 362 23 362 65 q 362 166 196 172 l 196 246 q 287 248 312 286 q 338 323 338 353 q 338 436 241 436 q 222 436 196 432 q 170 427 152 418 l 136 341 l 50 350 z"},";":{"x_min":0,"x_max":243,"ha":243,"o":"m 68 307 l 68 449 l 187 449 l 187 307 z m 178 136 l 120 -92 l 16 -92 l 73 136 z"},"J":{"x_min":0,"x_max":475,"ha":475,"o":"m 442 555 l 378 555 l 378 178 q 378 84 328 37 q 277 -10 192 -10 q 116 -10 74 24 q 31 57 10 104 l 88 163 q 107 120 130 106 q 154 93 182 93 q 227 93 247 116 q 267 140 267 177 l 267 555 l 147 555 l 147 650 l 442 650 z"},"V":{"x_min":0,"x_max":671,"ha":671,"o":"m 668 555 l 608 555 l 376 0 l 296 0 l 64 555 l 2 555 l 2 650 l 258 650 l 258 555 l 186 555 l 340 170 l 345 170 l 495 555 l 422 555 l 422 650 l 668 650 z"},"\"":{"x_min":0,"x_max":381,"ha":381,"o":"m 146 377 l 55 377 l 47 650 l 154 650 z m 326 377 l 235 377 l 227 650 l 334 650 z"},"7":{"x_min":0,"x_max":486,"ha":486,"o":"m 477 466 l 240 -130 l 131 -130 l 357 427 l 125 427 l 125 317 l 28 317 l 28 521 l 463 521 z"},"S":{"x_min":0,"x_max":548,"ha":548,"o":"m 512 191 q 512 94 444 42 q 377 -10 266 -10 q 200 -10 138 6 q 77 22 41 52 l 59 201 l 148 192 l 146 112 q 179 95 206 90 q 234 86 258 86 q 316 86 354 104 q 393 123 393 179 q 393 240 349 260 q 305 281 248 292 q 202 301 155 316 q 108 331 77 366 q 46 401 46 469 q 46 571 116 616 q 185 660 271 660 q 331 660 388 642 q 444 624 476 595 l 482 458 l 393 450 l 384 534 q 356 550 328 556 q 300 562 274 562 q 227 562 196 543 q 165 524 165 482 q 165 433 204 416 q 242 398 290 387 q 331 378 383 363 q 435 348 474 310 q 512 271 512 191 z"},"}":{"x_min":0,"x_max":292,"ha":292,"o":"m 176 271 q 114 279 89 306 q 64 332 64 361 q 64 394 86 441 q 107 488 128 540 q 150 591 150 635 q 150 699 87 699 l 23 699 l 23 772 l 87 772 q 171 772 205 731 q 239 690 239 637 q 239 586 218 532 q 196 477 175 430 q 154 384 154 355 q 154 318 192 307 q 229 296 252 296 l 271 296 l 271 246 l 252 246 q 230 246 192 236 q 154 225 154 188 q 154 160 175 112 q 196 64 218 9 q 239 -46 239 -99 q 239 -157 204 -196 q 168 -234 87 -234 l 23 -234 l 23 -160 l 87 -160 q 150 -160 150 -96 q 150 -52 128 0 q 107 53 86 102 q 64 150 64 182 q 64 210 89 237 q 114 264 176 271 z"},"Z":{"x_min":0,"x_max":584,"ha":584,"o":"m 536 0 l 28 0 l 25 59 l 376 553 l 376 555 l 160 555 l 137 442 l 43 451 l 65 650 l 536 650 l 538 597 l 184 97 l 184 95 l 441 95 l 464 222 l 559 212 z"},"x":{"x_min":0,"x_max":528,"ha":528,"o":"m 513 0 l 298 0 l 298 82 l 341 82 l 260 174 l 180 82 l 218 82 l 218 0 l 17 0 l 17 82 l 79 82 l 209 222 l 71 367 l 20 367 l 20 449 l 239 449 l 239 367 l 197 367 l 272 277 l 352 367 l 313 367 l 313 449 l 502 449 l 502 367 l 455 367 l 326 232 l 465 82 l 513 82 z"},")":{"x_min":0,"x_max":284,"ha":284,"o":"m 93 -183 l -3 -183 q 163 28 163 265 q 163 381 122 498 q 80 614 -3 718 l 95 718 q 178 608 216 494 q 254 379 254 265 q 254 150 215 37 q 176 -76 93 -183 z"},"&":{"x_min":0,"x_max":713,"ha":713,"o":"m 433 376 l 694 376 l 694 282 l 615 282 q 579 193 499 115 q 548 92 595 92 q 630 92 665 108 l 688 17 q 641 -10 578 -10 q 534 -10 491 4 q 448 18 406 43 q 321 -10 232 -10 q 160 -10 96 30 q 32 69 32 153 q 32 219 72 256 q 112 292 161 318 q 122 402 122 475 q 122 548 168 604 q 213 660 312 660 q 389 660 438 622 q 486 583 486 516 q 486 446 430 404 q 375 362 284 317 q 342 218 433 154 q 480 204 499 282 l 433 282 z m 376 511 q 376 531 363 554 q 350 577 309 577 q 262 577 246 546 q 230 514 230 484 q 230 431 257 369 q 376 437 376 511 z m 189 266 q 139 230 139 173 q 139 122 175 102 q 211 81 262 81 q 303 81 336 92 q 248 166 189 266 z"},"_":{"x_min":0,"x_max":514,"ha":514,"o":"m 41 -70 l 473 -70 l 473 -142 l 41 -142 z"},"v":{"x_min":0,"x_max":520,"ha":520,"o":"m 512 367 l 463 367 l 302 0 l 224 0 l 54 367 l 4 367 l 4 449 l 224 449 l 224 367 l 169 367 l 270 139 l 276 139 l 360 367 l 310 367 l 310 449 l 512 449 z"},"O":{"x_min":0,"x_max":718,"ha":718,"o":"m 689 326 q 689 188 600 89 q 511 -10 357 -10 q 202 -10 116 89 q 30 188 30 324 q 30 466 120 563 q 210 660 360 660 q 512 660 600 562 q 689 463 689 326 z m 569 323 q 569 432 514 497 q 458 562 359 562 q 255 562 202 494 q 150 427 150 327 q 150 230 202 159 q 253 88 362 88 q 465 88 517 154 q 569 221 569 323 z"},"(":{"x_min":0,"x_max":283,"ha":283,"o":"m 190 718 l 286 718 q 120 507 120 270 q 120 154 162 37 q 203 -80 286 -183 l 188 -183 q 105 -73 67 42 q 29 156 29 270 q 29 386 68 499 q 108 612 190 718 z"},"C":{"x_min":0,"x_max":645,"ha":645,"o":"m 587 62 q 552 29 488 10 q 423 -10 354 -10 q 213 -10 122 82 q 30 173 30 317 q 30 398 64 477 q 98 556 170 608 q 242 660 354 660 q 436 660 494 637 q 552 614 586 583 l 603 442 l 512 433 l 496 523 q 436 562 352 562 q 260 562 204 498 q 149 434 149 323 q 149 207 208 148 q 267 88 363 88 q 443 88 494 116 l 510 213 l 601 204 z"},"W":{"x_min":0,"x_max":968,"ha":968,"o":"m 959 555 l 906 555 l 729 0 l 647 0 l 488 458 l 483 458 l 329 0 l 246 0 l 58 555 l 2 555 l 2 650 l 249 650 l 249 555 l 177 555 l 289 183 l 294 183 l 423 555 l 366 555 l 366 650 l 612 650 l 612 555 l 559 555 l 688 178 l 693 178 l 795 555 l 715 555 l 715 650 l 959 650 z"},"A":{"x_min":0,"x_max":672,"ha":672,"o":"m 675 0 l 426 0 l 426 95 l 492 95 l 459 184 l 216 184 l 181 95 l 254 95 l 254 0 l 8 0 l 8 95 l 68 95 l 264 555 l 169 555 l 169 650 l 378 650 l 612 95 l 675 95 z m 429 265 l 344 491 l 338 491 l 248 265 z"},"f":{"x_min":0,"x_max":334,"ha":334,"o":"m 265 698 q 296 698 328 690 q 360 683 389 661 l 408 546 l 324 536 l 303 609 q 283 616 262 616 q 200 616 200 538 l 200 449 l 313 449 l 313 370 l 200 370 l 200 82 l 285 82 l 285 0 l 27 0 l 27 82 l 94 82 l 94 370 l 35 370 l 35 449 l 94 449 l 94 523 q 94 596 140 647 q 186 698 265 698 z"},"Q":{"x_min":0,"x_max":725,"ha":725,"o":"m 689 326 q 689 193 607 97 l 676 26 l 607 -43 l 530 35 q 453 -10 357 -10 q 202 -10 116 89 q 30 188 30 324 q 30 466 120 563 q 210 660 360 660 q 512 660 600 562 q 689 463 689 326 z m 569 323 q 569 432 514 497 q 458 562 359 562 q 255 562 202 494 q 150 427 150 327 q 150 230 202 159 q 253 88 362 88 q 416 88 457 110 l 351 219 l 420 288 l 530 176 q 569 234 569 323 z"},"w":{"x_min":0,"x_max":762,"ha":762,"o":"m 754 367 l 709 367 l 583 0 l 503 0 l 379 296 l 374 296 l 257 0 l 181 0 l 52 367 l 8 367 l 8 449 l 236 449 l 236 367 l 166 367 l 235 151 l 241 151 l 356 449 l 422 449 l 551 154 l 557 154 l 611 367 l 544 367 l 544 449 l 754 449 z"},"-":{"x_min":0,"x_max":331,"ha":331,"o":"m 48 278 l 284 278 l 284 188 l 48 188 z"},"E":{"x_min":0,"x_max":591,"ha":591,"o":"m 535 0 l 40 0 l 40 95 l 115 95 l 115 555 l 40 555 l 40 650 l 528 650 l 548 462 l 453 454 l 433 555 l 226 555 l 226 375 l 512 375 l 512 280 l 226 280 l 226 95 l 440 95 l 460 196 l 555 188 z"},"s":{"x_min":0,"x_max":451,"ha":451,"o":"m 421 134 q 421 64 364 27 q 306 -10 217 -10 q 169 -10 120 1 q 72 12 33 34 l 49 150 l 133 142 l 132 84 q 151 76 172 73 q 194 70 211 70 q 252 70 282 84 q 313 99 313 128 q 313 156 286 168 q 258 180 217 186 q 176 193 135 204 q 94 216 66 242 q 39 269 39 322 q 39 400 98 429 q 158 458 224 458 q 311 458 388 417 l 399 306 l 315 296 l 306 363 q 267 378 227 378 q 196 378 174 366 q 153 353 153 326 q 153 298 180 287 q 207 276 247 270 q 287 263 327 252 q 367 240 394 214 q 421 187 421 134 z"},">":{"x_min":0,"x_max":400,"ha":400,"o":"m 373 262 l 54 14 l 54 116 l 263 281 l 55 447 l 55 549 l 373 296 z"},"l":{"x_min":0,"x_max":278,"ha":278,"o":"m 259 0 l 19 0 l 19 82 l 86 82 l 86 606 l 15 606 l 15 688 l 192 688 l 192 82 l 259 82 z"},"8":{"x_min":0,"x_max":539,"ha":539,"o":"m 505 167 q 505 84 436 37 q 368 -10 267 -10 q 164 -10 100 33 q 36 76 36 159 q 36 229 78 265 q 119 301 174 324 q 124 351 88 388 q 51 426 51 488 q 51 564 112 612 q 172 660 269 660 q 363 660 423 616 q 483 572 483 498 q 483 440 446 408 q 409 375 360 353 q 416 324 460 282 q 505 240 505 167 z m 371 482 q 371 532 340 550 q 310 569 269 569 q 223 569 196 550 q 169 530 169 496 q 169 456 208 430 q 246 405 299 382 q 332 401 352 424 q 371 447 371 482 z m 386 165 q 386 213 338 241 q 291 269 232 296 q 196 276 172 250 q 147 225 147 183 q 147 136 179 108 q 211 81 269 81 q 322 81 354 104 q 386 128 386 165 z"},"\\":{"x_min":0,"x_max":408,"ha":408,"o":"m 72 688 l 177 688 l 380 0 l 275 0 z"},"e":{"x_min":0,"x_max":478,"ha":478,"o":"m 452 137 q 446 78 394 34 q 342 -10 251 -10 q 153 -10 90 48 q 27 105 27 217 q 27 320 84 389 q 142 458 245 458 q 338 458 392 402 q 447 347 448 262 q 448 234 442 202 l 139 202 q 148 76 259 76 q 311 76 334 101 q 356 126 363 154 z m 338 268 q 342 308 320 344 q 297 379 244 379 q 196 379 171 347 q 146 315 140 268 z"},"b":{"x_min":0,"x_max":544,"ha":544,"o":"m 517 235 q 517 140 467 65 q 417 -10 313 -10 q 207 -10 164 70 q 162 58 159 35 q 156 12 154 0 l 48 0 q 54 33 59 68 q 64 102 64 135 l 64 606 l -3 606 l -3 688 l 170 688 l 170 360 q 190 400 226 429 q 263 458 325 458 q 410 458 464 400 q 517 341 517 235 z m 406 226 q 406 297 374 334 q 342 372 292 372 q 235 372 203 330 q 171 288 170 239 l 170 207 q 170 152 202 114 q 235 75 288 75 q 344 75 375 116 q 406 157 406 226 z"},"%":{"x_min":0,"x_max":719,"ha":719,"o":"m 181 242 q 110 242 70 281 q 31 320 31 384 q 31 450 72 490 q 114 531 186 531 q 257 531 296 492 q 334 453 334 389 q 334 324 294 283 q 254 242 181 242 z m 615 521 l 408 262 l 211 0 l 99 0 l 332 286 l 503 521 z m 181 312 q 247 312 247 388 q 247 461 184 461 q 156 461 137 444 q 118 426 118 385 q 118 312 181 312 z m 535 -10 q 464 -10 424 29 q 385 68 385 132 q 385 198 426 239 q 468 280 541 280 q 612 280 650 240 q 689 201 689 137 q 689 72 649 31 q 609 -10 535 -10 z m 535 60 q 602 60 602 136 q 602 210 539 210 q 510 210 491 192 q 472 175 472 133 q 472 60 535 60 z"},"m":{"x_min":0,"x_max":871,"ha":871,"o":"m 860 0 l 662 0 l 662 82 l 687 82 l 687 258 q 687 322 664 348 q 642 375 601 375 q 548 375 524 339 q 499 303 498 257 l 498 82 l 565 82 l 565 0 l 367 0 l 367 82 l 391 82 l 391 258 q 391 322 368 348 q 346 375 306 375 q 254 375 229 340 q 204 304 203 258 l 203 82 l 287 82 l 287 0 l 29 0 l 29 82 l 96 82 l 96 366 l 30 366 l 30 449 l 203 449 l 203 375 q 224 412 259 435 q 294 458 344 458 q 394 458 434 434 q 474 409 490 357 q 510 403 548 430 q 586 458 641 458 q 702 458 748 419 q 794 380 794 297 l 794 82 l 860 82 z"},"#":{"x_min":0,"x_max":580,"ha":580,"o":"m 504 521 l 483 413 l 546 413 l 546 331 l 467 331 l 441 192 l 516 192 l 516 110 l 425 110 l 404 0 l 311 0 l 332 110 l 186 110 l 165 0 l 72 0 l 93 110 l 34 110 l 34 192 l 109 192 l 135 331 l 64 331 l 64 413 l 151 413 l 172 521 l 265 521 l 244 413 l 390 413 l 411 521 z m 202 192 l 348 192 l 374 331 l 228 331 z"},",":{"x_min":0,"x_max":214,"ha":214,"o":"m 11 -92 l 68 136 l 172 136 l 115 -92 z"},"n":{"x_min":0,"x_max":586,"ha":586,"o":"m 575 0 l 335 0 l 335 82 l 401 82 l 401 258 q 401 322 378 348 q 355 375 314 375 q 263 375 234 342 q 204 309 203 261 l 203 82 l 270 82 l 270 0 l 29 0 l 29 82 l 96 82 l 96 366 l 26 366 l 26 449 l 203 449 l 203 376 q 250 458 352 458 q 416 458 462 419 q 508 380 508 297 l 508 82 l 575 82 z"},"h":{"x_min":0,"x_max":573,"ha":573,"o":"m 562 0 l 321 0 l 321 82 l 388 82 l 388 258 q 388 322 364 348 q 340 375 299 375 q 250 375 221 343 q 192 311 190 265 l 190 82 l 256 82 l 256 0 l 16 0 l 16 82 l 83 82 l 83 606 l 16 606 l 16 688 l 190 688 l 190 375 q 236 458 339 458 q 404 458 450 419 q 495 380 495 297 l 495 82 l 562 82 z"},"z":{"x_min":0,"x_max":472,"ha":472,"o":"m 424 0 l 37 0 l 28 58 l 284 367 l 121 367 l 103 290 l 24 298 l 39 449 l 421 449 l 428 390 l 167 82 l 343 82 l 365 160 l 450 150 z"},"B":{"x_min":0,"x_max":615,"ha":615,"o":"m 585 190 q 585 112 532 56 q 478 0 368 0 l 40 0 l 40 95 l 115 95 l 115 555 l 40 555 l 40 650 l 364 650 q 456 650 508 608 q 561 566 561 496 q 561 445 530 407 q 499 369 445 359 l 445 355 q 515 344 550 299 q 585 254 585 190 z m 442 468 q 442 519 412 537 q 383 555 337 555 l 226 555 l 226 377 l 330 377 q 387 377 414 402 q 442 428 442 468 z m 466 194 q 466 290 356 290 l 226 290 l 226 95 l 341 95 q 466 95 466 194 z"},"K":{"x_min":0,"x_max":662,"ha":662,"o":"m 654 0 l 389 0 l 389 95 l 456 95 l 316 284 l 226 284 l 226 95 l 288 95 l 288 0 l 40 0 l 40 95 l 115 95 l 115 555 l 40 555 l 40 650 l 291 650 l 291 555 l 226 555 l 226 375 l 317 375 l 452 555 l 388 555 l 388 650 l 642 650 l 642 555 l 569 555 l 402 340 l 584 95 l 654 95 z"},"R":{"x_min":0,"x_max":630,"ha":630,"o":"m 619 0 l 467 0 l 333 257 l 226 257 l 226 95 l 302 95 l 302 0 l 40 0 l 40 95 l 115 95 l 115 555 l 40 555 l 40 650 l 329 650 q 450 650 510 600 q 570 549 570 458 q 570 393 536 346 q 501 300 440 280 l 539 95 l 619 95 z m 452 455 q 452 510 420 532 q 388 555 311 555 l 226 555 l 226 346 l 310 346 q 390 346 421 374 q 452 403 452 455 z"},"T":{"x_min":0,"x_max":639,"ha":639,"o":"m 618 438 l 522 430 l 502 555 l 375 555 l 375 95 l 484 95 l 484 0 l 159 0 l 159 95 l 264 95 l 264 555 l 136 555 l 116 430 l 21 438 l 41 650 l 598 650 z"},"P":{"x_min":0,"x_max":589,"ha":589,"o":"m 569 443 q 569 336 500 282 q 432 227 336 227 l 226 227 l 226 95 l 330 95 l 330 0 l 40 0 l 40 95 l 115 95 l 115 555 l 40 555 l 40 650 l 330 650 q 451 650 510 592 q 569 534 569 443 z m 450 441 q 450 495 420 525 q 389 555 317 555 l 226 555 l 226 321 l 317 321 q 388 321 419 354 q 450 386 450 441 z"},"|":{"x_min":0,"x_max":240,"ha":240,"o":"m 166 730 l 166 -80 l 74 -80 l 74 730 z"},"t":{"x_min":0,"x_max":388,"ha":388,"o":"m 391 132 q 372 -10 233 -10 q 161 -10 118 28 q 76 66 76 134 l 76 370 l 10 370 l 10 449 l 76 449 l 76 588 l 183 588 l 183 449 l 350 449 l 350 370 l 183 370 l 183 151 q 183 80 245 80 q 262 80 283 92 q 304 105 312 157 z"},"M":{"x_min":0,"x_max":893,"ha":893,"o":"m 859 555 l 777 555 l 777 95 l 851 95 l 851 0 l 602 0 l 602 95 l 666 95 l 666 406 l 662 406 l 473 46 l 423 46 l 224 415 l 220 415 l 220 95 l 288 95 l 288 0 l 42 0 l 42 95 l 116 95 l 116 555 l 34 555 l 34 650 l 210 650 l 450 207 l 454 207 l 682 650 l 859 650 z"},"g":{"x_min":0,"x_max":560,"ha":560,"o":"m 546 366 l 481 366 l 481 17 q 481 -90 422 -156 q 362 -222 244 -222 q 174 -222 113 -192 q 52 -162 27 -89 l 110 -44 q 152 -136 246 -136 q 302 -136 338 -96 q 374 -56 374 18 l 374 85 q 355 49 320 24 q 284 -2 222 -2 q 143 -2 86 54 q 28 109 28 215 q 28 311 80 384 q 131 458 229 458 q 331 458 374 379 l 374 449 l 546 449 z m 374 214 l 374 250 q 374 306 342 339 q 310 372 262 372 q 206 372 176 332 q 146 291 146 222 q 146 151 176 118 q 206 84 252 84 q 309 84 342 124 q 374 164 374 214 z"},"j":{"x_min":0,"x_max":260,"ha":260,"o":"m 89 542 l 89 660 l 198 660 l 198 542 z m 198 5 q 198 -122 148 -178 q 98 -234 -14 -223 l -17 -150 q 24 -150 58 -126 q 91 -103 91 5 l 91 366 l 10 366 l 10 449 l 198 449 z"},"i":{"x_min":0,"x_max":292,"ha":292,"o":"m 94 542 l 94 660 l 203 660 l 203 542 z m 273 0 l 33 0 l 33 82 l 100 82 l 100 366 l 29 366 l 29 449 l 206 449 l 206 82 l 273 82 z"},"y":{"x_min":0,"x_max":523,"ha":523,"o":"m 515 367 l 468 367 l 318 0 l 268 -129 l 334 -129 l 334 -213 l 94 -213 l 94 -129 l 170 -129 l 214 -4 l 55 367 l 6 367 l 6 449 l 227 449 l 227 367 l 170 367 l 274 124 l 280 124 l 364 367 l 313 367 l 313 449 l 515 449 z"},"@":{"x_min":0,"x_max":898,"ha":898,"o":"m 294 414 q 369 458 455 458 q 544 458 590 417 q 637 376 637 306 l 637 111 q 637 87 652 74 q 668 62 689 62 q 739 62 756 119 q 772 176 772 237 q 772 366 728 440 q 684 513 614 544 q 543 574 462 574 q 309 574 216 482 q 122 390 122 226 q 122 105 172 28 q 222 -49 301 -86 q 380 -122 468 -122 q 518 -122 574 -109 q 629 -96 673 -65 l 709 -130 q 660 -162 594 -182 q 528 -202 454 -202 q 338 -202 242 -151 q 147 -100 90 -6 q 33 87 33 216 q 33 338 86 438 q 140 537 236 596 q 331 654 458 654 q 552 654 646 616 q 739 579 800 496 q 862 412 862 274 q 862 209 844 144 q 826 78 783 34 q 740 -10 666 -10 q 613 -10 576 15 q 539 40 532 83 q 511 47 474 18 q 438 -10 383 -10 q 336 -10 288 18 q 241 47 241 118 q 241 174 274 203 q 306 232 355 242 q 404 253 456 253 q 496 253 530 250 l 530 275 q 530 332 512 356 q 495 380 452 380 q 435 380 416 376 q 396 372 377 361 l 355 289 l 274 298 z m 530 195 q 514 197 496 199 q 477 201 459 201 q 418 201 386 187 q 355 173 355 130 q 355 68 420 68 q 459 68 494 97 q 528 126 530 182 z"},".":{"x_min":0,"x_max":222,"ha":222,"o":"m 44 0 l 44 142 l 176 142 l 176 0 z"},"p":{"x_min":0,"x_max":563,"ha":563,"o":"m 535 236 q 535 140 484 65 q 434 -10 329 -10 q 232 -10 188 60 l 188 -129 l 277 -129 l 277 -213 l 14 -213 l 14 -129 l 81 -129 l 81 367 l 11 367 l 11 449 l 188 449 l 188 360 q 207 400 244 429 q 280 458 342 458 q 428 458 482 400 q 535 341 535 236 z m 424 225 q 424 297 391 334 q 358 372 307 372 q 253 372 222 331 q 191 290 189 235 l 188 200 q 188 144 220 110 q 253 76 304 76 q 361 76 392 116 q 424 156 424 225 z"},"X":{"x_min":0,"x_max":653,"ha":653,"o":"m 645 0 l 395 0 l 395 95 l 454 95 l 321 261 l 197 95 l 260 95 l 260 0 l 6 0 l 6 95 l 75 95 l 264 334 l 81 555 l 20 555 l 20 650 l 266 650 l 266 555 l 211 555 l 331 406 l 444 555 l 390 555 l 390 650 l 632 650 l 632 555 l 568 555 l 388 336 l 586 95 l 645 95 z"},"*":{"x_min":0,"x_max":416,"ha":416,"o":"m 379 541 l 268 483 l 379 425 l 339 362 l 239 428 l 245 318 l 170 318 l 176 428 l 77 362 l 36 425 l 148 483 l 36 541 l 77 605 l 177 537 l 170 650 l 245 650 l 238 537 l 339 605 z"},"Y":{"x_min":0,"x_max":633,"ha":633,"o":"m 626 555 l 567 555 l 373 252 l 373 95 l 482 95 l 482 0 l 158 0 l 158 95 l 262 95 l 262 253 l 61 555 l 1 555 l 1 650 l 258 650 l 258 555 l 190 555 l 320 351 l 326 351 l 453 555 l 381 555 l 381 650 l 626 650 z"},"c":{"x_min":0,"x_max":467,"ha":467,"o":"m 445 161 q 438 101 392 46 q 346 -10 244 -10 q 148 -10 88 48 q 27 106 27 217 q 27 326 90 392 q 152 458 253 458 q 293 458 333 448 q 373 438 412 415 l 430 289 l 344 280 l 329 354 q 292 372 251 372 q 139 372 139 222 q 139 76 254 76 q 338 76 355 178 z"},"!":{"x_min":0,"x_max":253,"ha":253,"o":"m 190 650 l 165 217 l 87 217 l 63 650 z m 64 0 l 64 127 l 192 127 l 192 0 z"},"/":{"x_min":0,"x_max":362,"ha":362,"o":"m 344 688 l 141 0 l 36 0 l 239 688 z"},"[":{"x_min":0,"x_max":292,"ha":292,"o":"m 74 -235 l 74 772 l 279 772 l 279 698 l 165 698 l 165 -161 l 279 -161 l 279 -235 z"},"6":{"x_min":0,"x_max":534,"ha":534,"o":"m 496 212 q 496 116 438 53 q 381 -10 272 -10 q 143 -10 90 80 q 37 170 37 310 q 37 405 62 484 q 86 564 142 612 q 198 660 292 660 q 350 660 399 640 q 448 619 483 571 l 419 506 q 373 565 288 565 q 216 565 188 512 q 160 458 156 346 l 156 323 q 172 358 209 386 q 246 413 313 413 q 414 413 455 350 q 496 288 496 212 z m 382 207 q 382 261 358 292 q 335 322 279 322 q 218 322 190 288 q 162 254 159 213 q 166 153 191 120 q 216 88 274 88 q 332 88 357 120 q 382 152 382 207 z"},"r":{"x_min":0,"x_max":433,"ha":433,"o":"m 303 456 q 348 456 387 431 l 406 291 l 323 281 l 306 358 q 286 368 272 368 q 244 368 224 345 q 203 322 203 281 l 203 82 l 292 82 l 292 0 l 29 0 l 29 82 l 96 82 l 96 366 l 26 366 l 26 449 l 195 449 l 195 365 q 207 403 234 430 q 260 456 303 456 z"},"2":{"x_min":0,"x_max":529,"ha":529,"o":"m 73 490 q 122 512 173 522 q 224 531 263 531 q 374 531 419 483 q 464 435 464 378 q 464 311 417 260 q 370 209 302 170 q 235 130 172 95 l 402 95 l 410 162 l 500 154 l 486 0 l 50 0 l 40 87 q 168 170 256 232 q 345 295 345 362 q 345 400 318 418 q 290 436 246 436 q 226 436 200 432 q 174 428 155 418 l 139 344 l 53 353 z"},"{":{"x_min":0,"x_max":292,"ha":292,"o":"m 116 267 q 178 259 203 232 q 228 206 228 177 q 228 144 206 97 q 185 50 164 -2 q 142 -53 142 -97 q 142 -161 205 -161 l 269 -161 l 269 -234 l 205 -234 q 121 -234 87 -193 q 53 -152 53 -99 q 53 -48 74 6 q 96 61 117 108 q 138 154 138 183 q 138 220 100 231 q 63 242 40 242 l 21 242 l 21 292 l 40 292 q 62 292 100 302 q 138 313 138 350 q 138 378 117 426 q 96 474 74 529 q 53 584 53 637 q 53 695 88 734 q 124 772 205 772 l 269 772 l 269 698 l 205 698 q 142 698 142 634 q 142 590 164 538 q 185 485 206 436 q 228 388 228 356 q 228 328 203 301 q 178 274 116 267 z"},"9":{"x_min":0,"x_max":534,"ha":534,"o":"m 37 309 q 37 404 94 468 q 152 531 261 531 q 390 531 443 441 q 496 351 496 212 q 496 117 472 37 q 448 -43 392 -91 q 336 -139 242 -139 q 184 -139 135 -118 q 86 -98 51 -50 l 115 15 q 161 -44 245 -44 q 317 -44 345 10 q 373 63 377 176 q 378 179 378 186 q 378 194 378 198 q 362 163 324 136 q 287 108 221 108 q 120 108 78 170 q 37 233 37 309 z m 151 314 q 151 260 174 230 q 198 199 255 199 q 316 199 344 232 q 371 266 374 308 q 367 368 342 400 q 318 433 259 433 q 201 433 176 402 q 151 370 151 314 z"}," ":{"x_min":0,"x_max":202,"ha":202,"o":""},"I":{"x_min":0,"x_max":341,"ha":341,"o":"m 300 0 l 40 0 l 40 95 l 115 95 l 115 555 l 40 555 l 40 650 l 300 650 l 300 555 l 226 555 l 226 95 l 300 95 z"},"H":{"x_min":0,"x_max":759,"ha":759,"o":"m 718 0 l 458 0 l 458 95 l 533 95 l 533 283 l 226 283 l 226 95 l 300 95 l 300 0 l 40 0 l 40 95 l 115 95 l 115 555 l 40 555 l 40 650 l 300 650 l 300 555 l 226 555 l 226 377 l 533 377 l 533 555 l 458 555 l 458 650 l 718 650 l 718 555 l 644 555 l 644 95 l 718 95 z"},"4":{"x_min":0,"x_max":558,"ha":558,"o":"m 435 -130 l 324 -130 l 324 31 l 28 31 l 16 123 l 228 521 l 435 521 l 435 123 l 536 123 l 526 31 l 435 31 z m 324 123 l 324 426 l 282 426 l 123 123 z"},"~":{"x_min":0,"x_max":584,"ha":584,"o":"m 393 185 q 350 185 316 202 q 282 219 250 236 q 218 253 180 253 q 159 253 138 242 q 116 230 90 190 l 30 230 q 90 351 183 351 q 222 351 253 334 q 284 317 316 300 q 349 283 392 283 q 421 283 442 298 q 464 312 490 355 l 557 311 q 528 253 488 219 q 447 185 393 185 z"},"D":{"x_min":0,"x_max":701,"ha":701,"o":"m 670 327 q 670 181 583 90 q 496 0 342 0 l 40 0 l 40 95 l 115 95 l 115 555 l 40 555 l 40 650 l 336 650 q 500 650 585 560 q 670 470 670 327 z m 551 326 q 551 555 333 555 l 226 555 l 226 95 l 333 95 q 551 95 551 326 z"},"^":{"x_min":0,"x_max":463,"ha":463,"o":"m 194 652 l 261 652 l 430 369 l 332 369 l 228 548 l 132 369 l 33 369 z"},"0":{"x_min":0,"x_max":576,"ha":576,"o":"m 539 256 q 539 124 471 57 q 403 -10 285 -10 q 166 -10 102 57 q 37 124 37 254 q 37 376 101 454 q 165 531 289 531 q 418 531 478 452 q 539 374 539 256 z m 420 261 q 420 355 386 394 q 351 433 288 433 q 224 433 190 393 q 156 353 156 261 q 156 168 190 128 q 223 88 287 88 q 348 88 384 126 q 420 164 420 261 z"},"F":{"x_min":0,"x_max":564,"ha":564,"o":"m 542 455 l 447 446 l 427 555 l 226 555 l 226 346 l 508 346 l 508 252 l 226 252 l 226 95 l 335 95 l 335 0 l 40 0 l 40 95 l 115 95 l 115 555 l 40 555 l 40 650 l 522 650 z"},"`":{"x_min":0,"x_max":440,"ha":440,"o":"m 366 555 l 336 512 l 150 609 l 207 693 z"},"k":{"x_min":0,"x_max":540,"ha":540,"o":"m 528 0 l 304 0 l 304 82 l 356 82 l 262 194 l 190 194 l 190 82 l 240 82 l 240 0 l 16 0 l 16 82 l 83 82 l 83 606 l 12 606 l 12 688 l 190 688 l 190 271 l 267 271 l 346 366 l 287 366 l 287 449 l 506 449 l 506 366 l 450 366 l 344 242 l 480 82 l 528 82 z"},"u":{"x_min":0,"x_max":576,"ha":576,"o":"m 561 0 l 384 0 l 384 75 q 340 -9 236 -9 q 172 -9 126 30 q 79 68 79 152 l 79 367 l 12 367 l 12 449 l 186 449 l 186 191 q 186 127 209 100 q 232 74 274 74 q 324 74 354 109 q 383 144 384 192 l 384 367 l 304 367 l 304 449 l 491 449 l 491 82 l 561 82 z"},"]":{"x_min":0,"x_max":293,"ha":293,"o":"m 218 -235 l 13 -235 l 13 -161 l 127 -161 l 127 698 l 13 698 l 13 772 l 218 772 z"},"U":{"x_min":0,"x_max":719,"ha":719,"o":"m 688 555 l 628 555 l 628 268 q 628 199 602 136 q 577 72 518 31 q 458 -10 356 -10 q 209 -10 151 71 q 93 152 93 257 l 93 555 l 31 555 l 31 650 l 285 650 l 285 555 l 204 555 l 204 260 q 204 183 241 136 q 278 88 362 88 q 444 88 484 136 q 524 183 524 268 l 524 555 l 441 555 l 441 650 l 688 650 z"},"o":{"x_min":0,"x_max":519,"ha":519,"o":"m 493 224 q 493 119 426 54 q 360 -10 254 -10 q 151 -10 88 52 q 26 114 26 220 q 26 318 85 388 q 144 459 260 459 q 377 459 435 389 q 493 319 493 224 z m 382 227 q 382 299 348 337 q 313 375 258 375 q 201 375 169 334 q 137 294 137 226 q 137 162 168 118 q 198 74 258 74 q 316 74 349 116 q 382 159 382 227 z"},"N":{"x_min":0,"x_max":752,"ha":752,"o":"m 722 555 l 647 555 l 647 0 l 583 -1 l 223 450 l 219 450 l 219 95 l 314 95 l 314 0 l 43 0 l 43 95 l 115 95 l 115 555 l 33 555 l 33 650 l 196 650 l 539 220 l 543 220 l 543 555 l 448 555 l 448 650 l 722 650 z"},"+":{"x_min":0,"x_max":408,"ha":408,"o":"m 31 244 l 31 318 l 170 318 l 170 455 l 244 455 l 244 318 l 378 318 l 378 244 l 244 244 l 244 108 l 170 108 l 170 244 z"},"G":{"x_min":0,"x_max":686,"ha":686,"o":"m 660 255 l 621 255 l 621 0 l 535 0 l 524 76 q 494 38 445 14 q 396 -10 330 -10 q 194 -10 112 86 q 31 181 31 321 q 31 460 117 560 q 203 660 359 660 q 438 660 500 638 q 562 615 596 583 l 614 449 l 523 440 l 505 522 q 447 562 357 562 q 266 562 208 500 q 150 438 150 323 q 150 210 205 149 q 260 88 349 88 q 424 88 467 128 q 510 169 510 231 l 510 255 l 372 255 l 372 350 l 660 350 z"},"q":{"x_min":0,"x_max":545,"ha":545,"o":"m 544 -213 l 285 -213 l 285 -129 l 374 -129 l 374 87 q 354 47 318 18 q 282 -10 220 -10 q 135 -10 81 48 q 27 107 27 212 q 27 308 78 383 q 128 458 231 458 q 339 458 382 373 q 384 392 387 411 q 390 430 394 449 l 498 449 q 490 411 486 373 q 481 335 481 297 l 481 -129 l 544 -129 z m 374 216 l 374 249 q 374 305 341 338 q 308 372 258 372 q 202 372 170 332 q 139 291 139 222 q 139 150 171 113 q 203 76 251 76 q 308 76 341 121 q 374 166 374 216 z"},"d":{"x_min":0,"x_max":562,"ha":562,"o":"m 548 0 l 375 0 l 375 86 q 355 47 318 18 q 280 -10 219 -10 q 131 -10 80 50 q 28 110 28 215 q 28 311 76 384 q 125 458 229 458 q 282 458 318 436 q 355 415 375 379 l 375 606 l 278 606 l 278 688 l 482 688 l 482 82 l 548 82 z m 375 216 l 375 250 q 374 306 341 339 q 308 372 260 372 q 206 372 172 332 q 139 291 139 221 q 139 150 172 113 q 206 76 253 76 q 308 76 341 121 q 374 166 375 216 z"},"1":{"x_min":0,"x_max":397,"ha":397,"o":"m 379 0 l 47 0 l 47 95 l 161 95 l 161 426 l 47 426 l 47 521 l 272 521 l 272 95 l 379 95 z"},"5":{"x_min":0,"x_max":518,"ha":518,"o":"m 487 68 q 487 -42 420 -92 q 353 -141 252 -141 q 151 -141 98 -96 q 46 -50 41 24 l 130 52 q 135 14 163 -16 q 191 -46 248 -46 q 311 -46 340 -13 q 368 20 368 67 q 368 142 316 164 q 263 185 195 185 q 172 185 150 184 q 127 182 105 180 l 69 215 l 69 521 l 454 521 l 469 355 l 376 347 l 360 426 l 171 426 l 171 275 q 182 276 192 276 q 203 276 213 276 q 284 276 346 260 q 409 243 448 198 q 487 153 487 68 z"}}}
